999
dxfrw 0.5.11
0
SECTION
2
HEADER
9
$ACADVER
1
AC1021
9
$HANDSEED
5
20000
9
$DWGCODEPAGE
3
ANSI_1252
9
$INSBASE
10
0
20
0
30
0
9
$EXTMIN
10
0
20
-3.39839486763e-15
30
0
9
$EXTMAX
10
13.875
20
3.75
30
0
9
$LIMMIN
10
0
20
0
9
$LIMMAX
10
420
20
297
9
$ORTHOMODE
70
0
9
$LTSCALE
40
1
9
$TEXTSTYLE
7
STANDARD
9
$CLAYER
8
Key Profile (R)
9
$DIMASZ
40
2.5
9
$DIMLFAC
40
1
9
$DIMSCALE
40
1
9
$DIMEXO
40
0.625
9
$DIMEXE
40
1.25
9
$DIMTXT
40
2.5
9
$DIMTSZ
40
0
9
$DIMAUNIT
70
0
9
$DIMADEC
70
2
9
$DIMLUNIT
70
2
9
$DIMSTYLE
2
STANDARD
9
$DIMGAP
40
0.625
9
$DIMTIH
70
0
9
$LUNITS
70
2
9
$LUPREC
70
4
9
$AUNITS
70
0
9
$AUPREC
70
2
9
$SPLINESEGS
70
8
9
$GRIDMODE
70
1
9
$SNAPSTYLE
70
0
9
$GRIDUNIT
10
0.1875
20
0.1875
9
$PINSBASE
10
-1.09104330709
20
2.25885826772
30
0
9
$PLIMMIN
10
0
20
0
9
$PLIMMAX
10
11.6929133858
20
8.26771653543
9
$INSUNITS
70
1
9
$PSVPSCALE
40
1
0
ENDSEC
0
SECTION
2
CLASSES
0
ENDSEC
0
SECTION
2
TABLES
0
TABLE
2
VPORT
5
8
330
0
100
AcDbSymbolTable
70
1
0
VPORT
5
31
330
2
100
AcDbSymbolTableRecord
100
AcDbViewportTableRecord
2
*ACTIVE
70
0
10
0
20
0
11
1
21
1
12
6.98217160335
22
2.72050064392
13
0
23
0
14
10
24
10
15
0.1875
25
0.1875
16
0
26
0
36
1
17
0
27
0
37
0
40
7.12065357373
41
1.97365119197
42
50
43
0
44
0
50
0
51
0
71
0
72
100
73
1
74
3
75
0
76
1
77
0
78
0
281
0
65
1
110
0
120
0
130
0
111
1
121
0
131
0
112
0
122
1
132
0
79
0
146
0
348
10020
60
3
61
5
292
1
282
1
141
0
142
0
63
250
421
3358443
0
ENDTAB
0
TABLE
2
LTYPE
5
5
330
0
100
AcDbSymbolTable
70
4
0
LTYPE
5
14
330
5
100
AcDbSymbolTableRecord
100
AcDbLinetypeTableRecord
2
ByBlock
70
0
3

72
65
73
0
40
0
0
LTYPE
5
15
330
5
100
AcDbSymbolTableRecord
100
AcDbLinetypeTableRecord
2
ByLayer
70
0
3

72
65
73
0
40
0
0
LTYPE
5
16
330
5
100
AcDbSymbolTableRecord
100
AcDbLinetypeTableRecord
2
Continuous
70
0
3
Solid line
72
65
73
0
40
0
0
LTYPE
5
32
330
5
100
AcDbSymbolTableRecord
100
AcDbLinetypeTableRecord
2
DOT
70
0
3
Dot . . . . . . . . . . . . . . . . . . . . . .
72
65
73
2
40
6.35
49
0
74
0
49
-6.35
74
0
0
LTYPE
5
33
330
5
100
AcDbSymbolTableRecord
100
AcDbLinetypeTableRecord
2
DOT2
70
0
3
Dot (.5x) .....................................
72
65
73
2
40
3.175
49
0
74
0
49
-3.175
74
0
0
LTYPE
5
34
330
5
100
AcDbSymbolTableRecord
100
AcDbLinetypeTableRecord
2
DOTX2
70
0
3
Dot (2x) .  .  .  .  .  .  .  .  .  .  .  .  .
72
65
73
2
40
12.7
49
0
74
0
49
-12.7
74
0
0
LTYPE
5
35
330
5
100
AcDbSymbolTableRecord
100
AcDbLinetypeTableRecord
2
DASHED
70
0
3
Dot . . . . . . . . . . . . . . . . . . . . . .
72
65
73
2
40
19.05
49
12.7
74
0
49
-6.35
74
0
0
LTYPE
5
36
330
5
100
AcDbSymbolTableRecord
100
AcDbLinetypeTableRecord
2
DASHED2
70
0
3
Dashed (.5x) _ _ _ _ _ _ _ _ _ _ _ _ _ _ _ _ _
72
65
73
2
40
9.525
49
6.35
74
0
49
-3.175
74
0
0
LTYPE
5
37
330
5
100
AcDbSymbolTableRecord
100
AcDbLinetypeTableRecord
2
DASHEDX2
70
0
3
Dashed (2x) ____  ____  ____  ____  ____  ___
72
65
73
2
40
38.1
49
25.4
74
0
49
-12.7
74
0
0
LTYPE
5
38
330
5
100
AcDbSymbolTableRecord
100
AcDbLinetypeTableRecord
2
DASHDOT
70
0
3
Dash dot __ . __ . __ . __ . __ . __ . __ . __
72
65
73
4
40
25.4
49
12.7
74
0
49
-6.35
74
0
49
0
74
0
49
-6.35
74
0
0
LTYPE
5
39
330
5
100
AcDbSymbolTableRecord
100
AcDbLinetypeTableRecord
2
DASHDOT2
70
0
3
Dash dot (.5x) _._._._._._._._._._._._._._._.
72
65
73
4
40
12.7
49
6.35
74
0
49
-3.175
74
0
49
0
74
0
49
-3.175
74
0
0
LTYPE
5
3A
330
5
100
AcDbSymbolTableRecord
100
AcDbLinetypeTableRecord
2
DASHDOTX2
70
0
3
Dash dot (2x) ____  .  ____  .  ____  .  ___
72
65
73
4
40
50.8
49
25.4
74
0
49
-12.7
74
0
49
0
74
0
49
-12.7
74
0
0
LTYPE
5
3B
330
5
100
AcDbSymbolTableRecord
100
AcDbLinetypeTableRecord
2
DIVIDE
70
0
3
Divide ____ . . ____ . . ____ . . ____ . . ____
72
65
73
6
40
31.75
49
12.7
74
0
49
-6.35
74
0
49
0
74
0
49
-6.35
74
0
49
0
74
0
49
-6.35
74
0
0
LTYPE
5
3C
330
5
100
AcDbSymbolTableRecord
100
AcDbLinetypeTableRecord
2
DIVIDE2
70
0
3
Divide (.5x) __..__..__..__..__..__..__..__.._
72
65
73
6
40
15.875
49
6.35
74
0
49
-3.175
74
0
49
0
74
0
49
-3.175
74
0
49
0
74
0
49
-3.175
74
0
0
LTYPE
5
3D
330
5
100
AcDbSymbolTableRecord
100
AcDbLinetypeTableRecord
2
DIVIDEX2
70
0
3
Divide (2x) ________  .  .  ________  .  .  _
72
65
73
6
40
63.5
49
25.4
74
0
49
-12.7
74
0
49
0
74
0
49
-12.7
74
0
49
0
74
0
49
-12.7
74
0
0
LTYPE
5
3E
330
5
100
AcDbSymbolTableRecord
100
AcDbLinetypeTableRecord
2
BORDER
70
0
3
Border __ __ . __ __ . __ __ . __ __ . __ __ .
72
65
73
6
40
44.45
49
12.7
74
0
49
-6.35
74
0
49
12.7
74
0
49
-6.35
74
0
49
0
74
0
49
-6.35
74
0
0
LTYPE
5
3F
330
5
100
AcDbSymbolTableRecord
100
AcDbLinetypeTableRecord
2
BORDER2
70
0
3
Border (.5x) __.__.__.__.__.__.__.__.__.__.__.
72
65
73
6
40
22.225
49
6.35
74
0
49
-3.175
74
0
49
6.35
74
0
49
-3.175
74
0
49
0
74
0
49
-3.175
74
0
0
LTYPE
5
40
330
5
100
AcDbSymbolTableRecord
100
AcDbLinetypeTableRecord
2
BORDERX2
70
0
3
Border (2x) ____  ____  .  ____  ____  .  ___
72
65
73
6
40
88.9
49
25.4
74
0
49
-12.7
74
0
49
25.4
74
0
49
-12.7
74
0
49
0
74
0
49
-12.7
74
0
0
LTYPE
5
41
330
5
100
AcDbSymbolTableRecord
100
AcDbLinetypeTableRecord
2
CENTER
70
0
3
Center ____ _ ____ _ ____ _ ____ _ ____ _ ____
72
65
73
4
40
50.8
49
31.75
74
0
49
-6.35
74
0
49
6.35
74
0
49
-6.35
74
0
0
LTYPE
5
42
330
5
100
AcDbSymbolTableRecord
100
AcDbLinetypeTableRecord
2
CENTER2
70
0
3
Center (.5x) ___ _ ___ _ ___ _ ___ _ ___ _ ___
72
65
73
4
40
28.575
49
19.05
74
0
49
-3.175
74
0
49
3.175
74
0
49
-3.175
74
0
0
LTYPE
5
43
330
5
100
AcDbSymbolTableRecord
100
AcDbLinetypeTableRecord
2
CENTERX2
70
0
3
Center (2x) ________  __  ________  __  _____
72
65
73
4
40
101.6
49
63.5
74
0
49
-12.7
74
0
49
12.7
74
0
49
-12.7
74
0
0
ENDTAB
0
TABLE
2
LAYER
5
2
330
0
100
AcDbSymbolTable
70
1
0
LAYER
5
10
330
2
100
AcDbSymbolTableRecord
100
AcDbLayerTableRecord
2
0
70
0
62
7
6
CONTINUOUS
370
0
390
F
0
LAYER
5
44
330
2
100
AcDbSymbolTableRecord
100
AcDbLayerTableRecord
2
Function Caption
70
0
62
2
6
CONTINUOUS
370
0
390
F
0
LAYER
5
45
330
2
100
AcDbSymbolTableRecord
100
AcDbLayerTableRecord
2
Key Profile (R)
70
0
62
136
420
32896
6
CONTINUOUS
370
0
390
F
0
LAYER
5
46
330
2
100
AcDbSymbolTableRecord
100
AcDbLayerTableRecord
2
Key Sizes
70
0
62
4
6
CONTINUOUS
370
0
390
F
0
LAYER
5
47
330
2
100
AcDbSymbolTableRecord
100
AcDbLayerTableRecord
2
Main Caption
70
0
62
1
6
CONTINUOUS
370
0
390
F
0
LAYER
5
48
330
2
100
AcDbSymbolTableRecord
100
AcDbLayerTableRecord
2
Secondary Caption
70
0
62
3
6
CONTINUOUS
370
0
390
F
0
ENDTAB
0
TABLE
2
STYLE
5
3
330
0
100
AcDbSymbolTable
70
3
0
STYLE
5
49
330
2
100
AcDbSymbolTableRecord
100
AcDbTextStyleTableRecord
2
wqy-unicode
70
0
40
0
41
1
50
0
71
0
42
1
3
wqy-unicode
4

0
STYLE
5
4A
330
2
100
AcDbSymbolTableRecord
100
AcDbTextStyleTableRecord
2
Standard
70
0
40
0
41
1
50
0
71
0
42
1
3
txt
4

0
ENDTAB
0
TABLE
2
VIEW
5
6
330
0
100
AcDbSymbolTable
70
0
0
ENDTAB
0
TABLE
2
UCS
5
7
330
0
100
AcDbSymbolTable
70
0
0
ENDTAB
0
TABLE
2
APPID
5
9
330
0
100
AcDbSymbolTable
70
1
0
APPID
5
12
330
9
100
AcDbSymbolTableRecord
100
AcDbRegAppTableRecord
2
ACAD
70
0
0
ENDTAB
0
TABLE
2
DIMSTYLE
5
A
330
0
100
AcDbSymbolTable
70
1
100
AcDbDimStyleTable
71
1
0
DIMSTYLE
105
4B
330
A
100
AcDbSymbolTableRecord
100
AcDbDimStyleTableRecord
2
Standard
70
0
40
1
41
2.5
42
0.625
43
0.38
44
1.25
45
0
46
0
47
0
48
0
140
2.5
141
0.09
142
0
143
25.4
144
1
145
0
146
1
147
0.625
148
0
71
0
72
0
73
0
74
1
75
0
76
0
77
0
78
0
79
0
170
0
171
2
172
0
173
0
174
0
175
0
176
0
177
0
178
0
179
0
271
4
272
4
273
2
274
2
275
0
276
0
277
2
278
46
279
0
280
0
281
0
282
0
283
1
284
0
285
0
286
0
288
0
289
3
340
Standard
341

371
-2
372
-2
0
ENDTAB
0
TABLE
2
BLOCK_RECORD
5
1
330
0
100
AcDbSymbolTable
70
2
0
BLOCK_RECORD
5
1F
330
1
100
AcDbSymbolTableRecord
100
AcDbBlockTableRecord
2
*Model_Space
70
0
280
1
281
0
0
BLOCK_RECORD
5
1E
330
1
100
AcDbSymbolTableRecord
100
AcDbBlockTableRecord
2
*Paper_Space
70
0
280
1
281
0
0
ENDTAB
0
ENDSEC
0
SECTION
2
BLOCKS
0
BLOCK
5
20
330
1F
100
AcDbEntity
8
0
100
AcDbBlockBegin
2
*Model_Space
70
0
10
0
20
0
30
0
3
*Model_Space
1

0
ENDBLK
5
21
330
1F
100
AcDbEntity
8
0
100
AcDbBlockEnd
0
BLOCK
5
1C
330
1B
100
AcDbEntity
8
0
100
AcDbBlockBegin
2
*Paper_Space
70
0
10
0
20
0
30
0
3
*Paper_Space
1

0
ENDBLK
5
1D
330
1F
100
AcDbEntity
8
0
100
AcDbBlockEnd
0
ENDSEC
0
SECTION
2
ENTITIES
0
LINE
5
4C
100
AcDbEntity
8
0
6
ByLayer
62
256
370
-1
100
AcDbLine
10
11.25
20
0.75
11
2.2962127484e-16
21
0.75
0
LINE
5
4D
100
AcDbEntity
8
0
6
ByLayer
62
256
370
-1
100
AcDbLine
10
11.25
20
1.5
11
4.5924254968e-16
21
1.5
0
LINE
5
4E
100
AcDbEntity
8
0
6
ByLayer
62
256
370
-1
100
AcDbLine
10
11.25
20
2.25
11
6.8886382452e-16
21
2.25
0
LINE
5
4F
100
AcDbEntity
8
0
6
ByLayer
62
256
370
-1
100
AcDbLine
10
11.25
20
3
11
9.18485099361e-16
21
3
0
LINE
5
50
100
AcDbEntity
8
0
6
ByLayer
62
256
370
-1
100
AcDbLine
10
11.25
20
3.75
11
1.1481063742e-15
21
3.75
0
LINE
5
51
100
AcDbEntity
8
0
6
ByLayer
62
256
370
-1
100
AcDbLine
10
1.1481063742e-15
20
3.75
11
9.18485099361e-16
21
3
0
LINE
5
52
100
AcDbEntity
8
0
6
ByLayer
62
256
370
-1
100
AcDbLine
10
9.18485099361e-16
20
3
11
6.8886382452e-16
21
2.25
0
LINE
5
53
100
AcDbEntity
8
0
6
ByLayer
62
256
370
-1
100
AcDbLine
10
6.8886382452e-16
20
2.25
11
4.5924254968e-16
21
1.5
0
LINE
5
54
100
AcDbEntity
8
0
6
ByLayer
62
256
370
-1
100
AcDbLine
10
4.5924254968e-16
20
1.5
11
2.2962127484e-16
21
0.75
0
LINE
5
55
100
AcDbEntity
8
0
6
ByLayer
62
256
370
-1
100
AcDbLine
10
2.2962127484e-16
20
0.75
11
0
21
0
0
LINE
5
56
100
AcDbEntity
8
0
6
ByLayer
62
256
370
-1
100
AcDbLine
10
11.25
20
-2.75545529808e-15
11
11.25
21
0.75
0
LINE
5
57
100
AcDbEntity
8
0
6
ByLayer
62
256
370
-1
100
AcDbLine
10
11.25
20
0.75
11
11.25
21
1.5
0
LINE
5
58
100
AcDbEntity
8
0
6
ByLayer
62
256
370
-1
100
AcDbLine
10
11.25
20
1.5
11
11.25
21
2.25
0
LINE
5
59
100
AcDbEntity
8
0
6
ByLayer
62
256
370
-1
100
AcDbLine
10
11.25
20
2.25
11
11.25
21
3
0
LINE
5
5A
100
AcDbEntity
8
0
6
ByLayer
62
256
370
-1
100
AcDbLine
10
11.25
20
3
11
11.25
21
3.75
0
LINE
5
5B
100
AcDbEntity
8
0
6
ByLayer
62
256
370
-1
100
AcDbLine
10
0.75
20
3.75
11
0.75
21
3
0
LINE
5
5C
100
AcDbEntity
8
0
6
ByLayer
62
256
370
-1
100
AcDbLine
10
1.5
20
3.75
11
1.5
21
3
0
LINE
5
5D
100
AcDbEntity
8
0
6
ByLayer
62
256
370
-1
100
AcDbLine
10
2.25
20
3.75
11
2.25
21
3
0
LINE
5
5E
100
AcDbEntity
8
0
6
ByLayer
62
256
370
-1
100
AcDbLine
10
3
20
3.75
11
3
21
3
0
LINE
5
5F
100
AcDbEntity
8
0
6
ByLayer
62
256
370
-1
100
AcDbLine
10
3.75
20
3.75
11
3.75
21
3
0
LINE
5
60
100
AcDbEntity
8
0
6
ByLayer
62
256
370
-1
100
AcDbLine
10
4.5
20
3.75
11
4.5
21
3
0
LINE
5
61
100
AcDbEntity
8
0
6
ByLayer
62
256
370
-1
100
AcDbLine
10
5.25
20
3.75
11
5.25
21
3
0
LINE
5
62
100
AcDbEntity
8
0
6
ByLayer
62
256
370
-1
100
AcDbLine
10
6
20
3.75
11
6
21
3
0
LINE
5
63
100
AcDbEntity
8
0
6
ByLayer
62
256
370
-1
100
AcDbLine
10
6.75
20
3.75
11
6.75
21
3
0
LINE
5
64
100
AcDbEntity
8
0
6
ByLayer
62
256
370
-1
100
AcDbLine
10
7.5
20
3.75
11
7.5
21
3
0
LINE
5
65
100
AcDbEntity
8
0
6
ByLayer
62
256
370
-1
100
AcDbLine
10
8.25
20
3.75
11
8.25
21
3
0
LINE
5
66
100
AcDbEntity
8
0
6
ByLayer
62
256
370
-1
100
AcDbLine
10
9
20
3.75
11
9
21
3
0
LINE
5
67
100
AcDbEntity
8
0
6
ByLayer
62
256
370
-1
100
AcDbLine
10
9.75
20
3.75
11
9.75
21
3
0
LINE
5
68
100
AcDbEntity
8
0
6
ByLayer
62
256
370
-1
100
AcDbLine
10
1.125
20
3
11
1.125
21
2.25
0
LINE
5
69
100
AcDbEntity
8
0
6
ByLayer
62
256
370
-1
100
AcDbLine
10
10.125
20
2.25
11
10.125
21
3
0
LINE
5
6A
100
AcDbEntity
8
0
6
ByLayer
62
256
370
-1
100
AcDbLine
10
1.875
20
3
11
1.875
21
2.25
0
LINE
5
6B
100
AcDbEntity
8
0
6
ByLayer
62
256
370
-1
100
AcDbLine
10
2.625
20
3
11
2.625
21
2.25
0
LINE
5
6C
100
AcDbEntity
8
0
6
ByLayer
62
256
370
-1
100
AcDbLine
10
3.375
20
3
11
3.375
21
2.25
0
LINE
5
6D
100
AcDbEntity
8
0
6
ByLayer
62
256
370
-1
100
AcDbLine
10
4.125
20
3
11
4.125
21
2.25
0
LINE
5
6E
100
AcDbEntity
8
0
6
ByLayer
62
256
370
-1
100
AcDbLine
10
4.875
20
3
11
4.875
21
2.25
0
LINE
5
6F
100
AcDbEntity
8
0
6
ByLayer
62
256
370
-1
100
AcDbLine
10
5.625
20
3
11
5.625
21
2.25
0
LINE
5
70
100
AcDbEntity
8
0
6
ByLayer
62
256
370
-1
100
AcDbLine
10
6.375
20
3
11
6.375
21
2.25
0
LINE
5
71
100
AcDbEntity
8
0
6
ByLayer
62
256
370
-1
100
AcDbLine
10
7.125
20
3
11
7.125
21
2.25
0
LINE
5
72
100
AcDbEntity
8
0
6
ByLayer
62
256
370
-1
100
AcDbLine
10
7.875
20
3
11
7.875
21
2.25
0
LINE
5
73
100
AcDbEntity
8
0
6
ByLayer
62
256
370
-1
100
AcDbLine
10
8.625
20
3
11
8.625
21
2.25
0
LINE
5
74
100
AcDbEntity
8
0
6
ByLayer
62
256
370
-1
100
AcDbLine
10
9.375
20
3
11
9.375
21
2.25
0
LINE
5
75
100
AcDbEntity
8
0
6
ByLayer
62
256
370
-1
100
AcDbLine
10
1.3125
20
2.25
11
1.3125
21
1.5
0
LINE
5
76
100
AcDbEntity
8
0
6
ByLayer
62
256
370
-1
100
AcDbLine
10
1.6875
20
1.5
11
1.6875
21
0.75
0
LINE
5
77
100
AcDbEntity
8
0
6
ByLayer
62
256
370
-1
100
AcDbLine
10
2.0625
20
2.25
11
2.0625
21
1.5
0
LINE
5
78
100
AcDbEntity
8
0
6
ByLayer
62
256
370
-1
100
AcDbLine
10
2.8125
20
2.25
11
2.8125
21
1.5
0
LINE
5
79
100
AcDbEntity
8
0
6
ByLayer
62
256
370
-1
100
AcDbLine
10
3.5625
20
2.25
11
3.5625
21
1.5
0
LINE
5
7A
100
AcDbEntity
8
0
6
ByLayer
62
256
370
-1
100
AcDbLine
10
4.3125
20
2.25
11
4.3125
21
1.5
0
LINE
5
7B
100
AcDbEntity
8
0
6
ByLayer
62
256
370
-1
100
AcDbLine
10
5.0625
20
2.25
11
5.0625
21
1.5
0
LINE
5
7C
100
AcDbEntity
8
0
6
ByLayer
62
256
370
-1
100
AcDbLine
10
5.8125
20
2.25
11
5.8125
21
1.5
0
LINE
5
7D
100
AcDbEntity
8
0
6
ByLayer
62
256
370
-1
100
AcDbLine
10
6.5625
20
2.25
11
6.5625
21
1.5
0
LINE
5
7E
100
AcDbEntity
8
0
6
ByLayer
62
256
370
-1
100
AcDbLine
10
7.3125
20
2.25
11
7.3125
21
1.5
0
LINE
5
7F
100
AcDbEntity
8
0
6
ByLayer
62
256
370
-1
100
AcDbLine
10
8.0625
20
2.25
11
8.0625
21
1.5
0
LINE
5
80
100
AcDbEntity
8
0
6
ByLayer
62
256
370
-1
100
AcDbLine
10
8.8125
20
2.25
11
8.8125
21
1.5
0
LINE
5
81
100
AcDbEntity
8
0
6
ByLayer
62
256
370
-1
100
AcDbLine
10
9.5625
20
2.25
11
9.5625
21
1.5
0
LINE
5
82
100
AcDbEntity
8
0
6
ByLayer
62
256
370
-1
100
AcDbLine
10
2.4375
20
1.5
11
2.4375
21
0.75
0
LINE
5
83
100
AcDbEntity
8
0
6
ByLayer
62
256
370
-1
100
AcDbLine
10
3.1875
20
1.5
11
3.1875
21
0.75
0
LINE
5
84
100
AcDbEntity
8
0
6
ByLayer
62
256
370
-1
100
AcDbLine
10
3.9375
20
1.5
11
3.9375
21
0.75
0
LINE
5
85
100
AcDbEntity
8
0
6
ByLayer
62
256
370
-1
100
AcDbLine
10
4.6875
20
1.5
11
4.6875
21
0.75
0
LINE
5
86
100
AcDbEntity
8
0
6
ByLayer
62
256
370
-1
100
AcDbLine
10
5.4375
20
1.5
11
5.4375
21
0.75
0
LINE
5
87
100
AcDbEntity
8
0
6
ByLayer
62
256
370
-1
100
AcDbLine
10
6.1875
20
1.5
11
6.1875
21
0.75
0
LINE
5
88
100
AcDbEntity
8
0
6
ByLayer
62
256
370
-1
100
AcDbLine
10
6.9375
20
1.5
11
6.9375
21
0.75
0
LINE
5
89
100
AcDbEntity
8
0
6
ByLayer
62
256
370
-1
100
AcDbLine
10
7.6875
20
1.5
11
7.6875
21
0.75
0
LINE
5
8A
100
AcDbEntity
8
0
6
ByLayer
62
256
370
-1
100
AcDbLine
10
8.4375
20
1.5
11
8.4375
21
0.75
0
LINE
5
8B
100
AcDbEntity
8
0
6
ByLayer
62
256
370
-1
100
AcDbLine
10
9.1875
20
1.5
11
9.1875
21
0.75
0
LINE
5
8C
100
AcDbEntity
8
0
6
ByLayer
62
256
370
-1
100
AcDbLine
10
0.9375
20
0.75
11
0.9375
21
-2.2962127484e-16
0
LINE
5
8D
100
AcDbEntity
8
0
6
ByLayer
62
256
370
-1
100
AcDbLine
10
1.875
20
0.75
11
1.875
21
-4.5924254968e-16
0
LINE
5
8E
100
AcDbEntity
8
0
6
ByLayer
62
256
370
-1
100
AcDbLine
10
2.8125
20
0.75
11
2.8125
21
-6.8886382452e-16
0
LINE
5
8F
100
AcDbEntity
8
0
6
ByLayer
62
256
370
-1
100
AcDbLine
10
7.5
20
0.75
11
7.5
21
-1.83697019872e-15
0
LINE
5
90
100
AcDbEntity
8
0
6
ByLayer
62
256
370
-1
100
AcDbLine
10
8.4375
20
0.75
11
8.4375
21
-2.06659147356e-15
0
LINE
5
91
100
AcDbEntity
8
0
6
ByLayer
62
256
370
-1
100
AcDbLine
10
9.375
20
0.75
11
9.375
21
-2.2962127484e-15
0
LINE
5
92
100
AcDbEntity
8
0
6
ByLayer
62
256
370
-1
100
AcDbLine
10
10.3125
20
0.75
11
10.3125
21
-2.52583402324e-15
0
LINE
5
93
100
AcDbEntity
8
0
6
ByLayer
62
256
370
-1
100
AcDbLine
10
11.625
20
3
11
11.625
21
3.75
0
LINE
5
94
100
AcDbEntity
8
0
6
ByLayer
62
256
370
-1
100
AcDbLine
10
11.625
20
2.25
11
11.625
21
3
0
LINE
5
95
100
AcDbEntity
8
0
6
ByLayer
62
256
370
-1
100
AcDbLine
10
11.625
20
-2.84730380802e-15
11
11.625
21
0.75
0
LINE
5
96
100
AcDbEntity
8
0
6
ByLayer
62
256
370
-1
100
AcDbLine
10
12.375
20
0.75
11
12.375
21
1.5
0
LINE
5
97
100
AcDbEntity
8
0
6
ByLayer
62
256
370
-1
100
AcDbLine
10
13.125
20
0.75
11
13.125
21
1.5
0
LINE
5
98
100
AcDbEntity
8
0
6
ByLayer
62
256
370
-1
100
AcDbLine
10
12.375
20
-3.03100082789e-15
11
12.375
21
0.75
0
LINE
5
99
100
AcDbEntity
8
0
6
ByLayer
62
256
370
-1
100
AcDbLine
10
13.125
20
-3.21469784776e-15
11
13.125
21
0.75
0
LINE
5
9A
100
AcDbEntity
8
0
6
ByLayer
62
256
370
-1
100
AcDbLine
10
13.875
20
-3.39839486763e-15
11
13.875
21
0.75
0
LINE
5
9B
100
AcDbEntity
8
0
6
ByLayer
62
256
370
-1
100
AcDbLine
10
12.375
20
2.25
11
12.375
21
3
0
LINE
5
9C
100
AcDbEntity
8
0
6
ByLayer
62
256
370
-1
100
AcDbLine
10
13.125
20
2.25
11
13.125
21
3
0
LINE
5
9D
100
AcDbEntity
8
0
6
ByLayer
62
256
370
-1
100
AcDbLine
10
13.875
20
2.25
11
13.875
21
3
0
LINE
5
9E
100
AcDbEntity
8
0
6
ByLayer
62
256
370
-1
100
AcDbLine
10
12.375
20
3
11
12.375
21
3.75
0
LINE
5
9F
100
AcDbEntity
8
0
6
ByLayer
62
256
370
-1
100
AcDbLine
10
13.125
20
3
11
13.125
21
3.75
0
LINE
5
A0
100
AcDbEntity
8
0
6
ByLayer
62
256
370
-1
100
AcDbLine
10
13.875
20
3
11
13.875
21
3.75
0
LINE
5
A1
100
AcDbEntity
8
0
6
ByLayer
62
256
370
-1
100
AcDbLine
10
11.625
20
3.75
11
12.375
21
3.75
0
LINE
5
A2
100
AcDbEntity
8
0
6
ByLayer
62
256
370
-1
100
AcDbLine
10
12.375
20
3.75
11
13.125
21
3.75
0
LINE
5
A3
100
AcDbEntity
8
0
6
ByLayer
62
256
370
-1
100
AcDbLine
10
13.125
20
3.75
11
13.875
21
3.75
0
LINE
5
A4
100
AcDbEntity
8
0
6
ByLayer
62
256
370
-1
100
AcDbLine
10
13.875
20
3
11
13.125
21
3
0
LINE
5
A5
100
AcDbEntity
8
0
6
ByLayer
62
256
370
-1
100
AcDbLine
10
13.125
20
3
11
12.375
21
3
0
LINE
5
A6
100
AcDbEntity
8
0
6
ByLayer
62
256
370
-1
100
AcDbLine
10
12.375
20
3
11
11.625
21
3
0
LINE
5
A7
100
AcDbEntity
8
0
6
ByLayer
62
256
370
-1
100
AcDbLine
10
11.625
20
2.25
11
12.375
21
2.25
0
LINE
5
A8
100
AcDbEntity
8
0
6
ByLayer
62
256
370
-1
100
AcDbLine
10
12.375
20
2.25
11
13.125
21
2.25
0
LINE
5
A9
100
AcDbEntity
8
0
6
ByLayer
62
256
370
-1
100
AcDbLine
10
13.125
20
2.25
11
13.875
21
2.25
0
LINE
5
AA
100
AcDbEntity
8
0
6
ByLayer
62
256
370
-1
100
AcDbLine
10
13.125
20
1.5
11
12.375
21
1.5
0
LINE
5
AB
100
AcDbEntity
8
0
6
ByLayer
62
256
370
-1
100
AcDbLine
10
11.625
20
0.75
11
12.375
21
0.75
0
LINE
5
AC
100
AcDbEntity
8
0
6
ByLayer
62
256
370
-1
100
AcDbLine
10
12.375
20
0.75
11
13.125
21
0.75
0
LINE
5
AD
100
AcDbEntity
8
0
6
ByLayer
62
256
370
-1
100
AcDbLine
10
13.125
20
0.75
11
13.875
21
0.75
0
LINE
5
AE
100
AcDbEntity
8
0
6
ByLayer
62
256
370
-1
100
AcDbLine
10
13.875
20
0
11
13.125
21
-3.21469784776e-15
0
LINE
5
AF
100
AcDbEntity
8
0
6
ByLayer
62
256
370
-1
100
AcDbLine
10
13.125
20
-3.21469784776e-15
11
12.375
21
-3.03100082789e-15
0
LINE
5
B0
100
AcDbEntity
8
0
6
ByLayer
62
256
370
-1
100
AcDbLine
10
12.375
20
-3.03100082789e-15
11
11.625
21
-2.84730380802e-15
0
MTEXT
5
B1
100
AcDbEntity
8
Main Caption
6
ByLayer
62
256
370
-1
100
AcDbMText
10
0.375
20
3.1875
30
0
40
0.1
41
0.0267777777778
71
5
72
1
1
`
7
wqy-unicode
210
0
220
0
230
1
50
0
73
2
44
1
0
MTEXT
5
B2
100
AcDbEntity
8
Main Caption
6
ByLayer
62
256
370
-1
100
AcDbMText
10
1.125
20
3.1875
30
0
40
0.1
41
0.0363333333333
71
5
72
1
1
1
7
wqy-unicode
210
0
220
0
230
1
50
0
73
2
44
1
0
MTEXT
5
B3
100
AcDbEntity
8
Main Caption
6
ByLayer
62
256
370
-1
100
AcDbMText
10
1.875
20
3.1875
30
0
40
0.1
41
0.0621111111111
71
5
72
1
1
2
7
wqy-unicode
210
0
220
0
230
1
50
0
73
2
44
1
0
MTEXT
5
B4
100
AcDbEntity
8
Main Caption
6
ByLayer
62
256
370
-1
100
AcDbMText
10
2.625
20
3.1875
30
0
40
0.1
41
0.0628888888889
71
5
72
1
1
3
7
wqy-unicode
210
0
220
0
230
1
50
0
73
2
44
1
0
MTEXT
5
B5
100
AcDbEntity
8
Main Caption
6
ByLayer
62
256
370
-1
100
AcDbMText
10
3.375
20
3.1875
30
0
40
0.1
41
0.0725555555556
71
5
72
1
1
4
7
wqy-unicode
210
0
220
0
230
1
50
0
73
2
44
1
0
MTEXT
5
B6
100
AcDbEntity
8
Main Caption
6
ByLayer
62
256
370
-1
100
AcDbMText
10
4.125
20
3.1875
30
0
40
0.1
41
0.0601111111111
71
5
72
1
1
5
7
wqy-unicode
210
0
220
0
230
1
50
0
73
2
44
1
0
MTEXT
5
B7
100
AcDbEntity
8
Main Caption
6
ByLayer
62
256
370
-1
100
AcDbMText
10
4.875
20
3.1875
30
0
40
0.1
41
0.0627777777778
71
5
72
1
1
6
7
wqy-unicode
210
0
220
0
230
1
50
0
73
2
44
1
0
MTEXT
5
B8
100
AcDbEntity
8
Main Caption
6
ByLayer
62
256
370
-1
100
AcDbMText
10
5.625
20
3.1875
30
0
40
0.1
41
0.064
71
5
72
1
1
7
7
wqy-unicode
210
0
220
0
230
1
50
0
73
2
44
1
0
MTEXT
5
B9
100
AcDbEntity
8
Main Caption
6
ByLayer
62
256
370
-1
100
AcDbMText
10
6.375
20
3.1875
30
0
40
0.1
41
0.0624444444444
71
5
72
1
1
8
7
wqy-unicode
210
0
220
0
230
1
50
0
73
2
44
1
0
MTEXT
5
BA
100
AcDbEntity
8
Main Caption
6
ByLayer
62
256
370
-1
100
AcDbMText
10
7.125
20
3.1875
30
0
40
0.1
41
0.0627777777778
71
5
72
1
1
9
7
wqy-unicode
210
0
220
0
230
1
50
0
73
2
44
1
0
MTEXT
5
BB
100
AcDbEntity
8
Main Caption
6
ByLayer
62
256
370
-1
100
AcDbMText
10
7.875
20
3.1875
30
0
40
0.1
41
0.0636666666667
71
5
72
1
1
0
7
wqy-unicode
210
0
220
0
230
1
50
0
73
2
44
1
0
MTEXT
5
BC
100
AcDbEntity
8
Main Caption
6
ByLayer
62
256
370
-1
100
AcDbMText
10
8.625
20
3.1875
30
0
40
0.1
41
0.0448888888889
71
5
72
1
1
-
7
wqy-unicode
210
0
220
0
230
1
50
0
73
2
44
1
0
MTEXT
5
BD
100
AcDbEntity
8
Main Caption
6
ByLayer
62
256
370
-1
100
AcDbMText
10
9.375
20
3.1875
30
0
40
0.1
41
0.0628888888889
71
5
72
1
1
=
7
wqy-unicode
210
0
220
0
230
1
50
0
73
2
44
1
0
MTEXT
5
BE
100
AcDbEntity
8
Main Caption
6
ByLayer
62
256
370
-1
100
AcDbMText
10
0.1875
20
0.5625
30
0
40
0.1
41
0.346
71
4
72
1
1
Ctrl
7
wqy-unicode
210
0
220
0
230
1
50
0
73
2
44
1
0
MTEXT
5
BF
100
AcDbEntity
8
Main Caption
6
ByLayer
62
256
370
-1
100
AcDbMText
10
1.125
20
0.5625
30
0
40
0.1
41
0.271777777778
71
4
72
1
1
Win
7
wqy-unicode
210
0
220
0
230
1
50
0
73
2
44
1
0
MTEXT
5
C0
100
AcDbEntity
8
Main Caption
6
ByLayer
62
256
370
-1
100
AcDbMText
10
2.0625
20
0.5625
30
0
40
0.1
41
0.266222222222
71
4
72
1
1
Alt
7
wqy-unicode
210
0
220
0
230
1
50
0
73
2
44
1
0
MTEXT
5
C1
100
AcDbEntity
8
Main Caption
6
ByLayer
62
256
370
-1
100
AcDbMText
10
3
20
0.5625
30
0
40
0.1
41
0.448222222222
71
4
72
1
1
Space
7
wqy-unicode
210
0
220
0
230
1
50
0
73
2
44
1
0
MTEXT
5
C2
100
AcDbEntity
8
Main Caption
6
ByLayer
62
256
370
-1
100
AcDbMText
10
7.6875
20
0.5625
30
0
40
0.1
41
0.266222222222
71
4
72
1
1
Alt
7
wqy-unicode
210
0
220
0
230
1
50
0
73
2
44
1
0
LINE
5
C3
100
AcDbEntity
8
0
6
ByLayer
62
256
370
-1
100
AcDbLine
10
10.5
20
-2.66360678814e-15
11
10.5
21
0.75
0
LINE
5
C4
100
AcDbEntity
8
0
6
ByLayer
62
256
370
-1
100
AcDbLine
10
0
20
0
11
0.9375
21
-2.2962127484e-16
0
LINE
5
C5
100
AcDbEntity
8
0
6
ByLayer
62
256
370
-1
100
AcDbLine
10
0.9375
20
-2.2962127484e-16
11
1.875
21
-4.5924254968e-16
0
LINE
5
C6
100
AcDbEntity
8
0
6
ByLayer
62
256
370
-1
100
AcDbLine
10
1.875
20
-4.5924254968e-16
11
2.8125
21
-6.8886382452e-16
0
LINE
5
C7
100
AcDbEntity
8
0
6
ByLayer
62
256
370
-1
100
AcDbLine
10
2.8125
20
-6.8886382452e-16
11
7.5
21
-1.83697019872e-15
0
LINE
5
C8
100
AcDbEntity
8
0
6
ByLayer
62
256
370
-1
100
AcDbLine
10
7.5
20
-1.83697019872e-15
11
8.4375
21
-2.06659147356e-15
0
LINE
5
C9
100
AcDbEntity
8
0
6
ByLayer
62
256
370
-1
100
AcDbLine
10
8.4375
20
-2.06659147356e-15
11
9.375
21
0
0
LINE
5
CA
100
AcDbEntity
8
0
6
ByLayer
62
256
370
-1
100
AcDbLine
10
9.375
20
0
11
10.3125
21
-2.52583402324e-15
0
LINE
5
CB
100
AcDbEntity
8
0
6
ByLayer
62
256
370
-1
100
AcDbLine
10
10.5
20
-2.66360678814e-15
11
11.25
21
-2.75545529808e-15
0
MTEXT
5
CC
100
AcDbEntity
8
Main Caption
6
ByLayer
62
256
370
-1
100
AcDbMText
10
9.5625
20
0.5625
30
0
40
0.1
41
0.152555555556
71
4
72
1
1
Fn
7
wqy-unicode
210
0
220
0
230
1
50
0
73
2
44
1
0
MTEXT
5
CD
100
AcDbEntity
8
Main Caption
6
ByLayer
62
256
370
-1
100
AcDbMText
10
8.625
20
0.5625
30
0
40
0.1
41
0.346
71
4
72
1
1
Ctrl
7
wqy-unicode
210
0
220
0
230
1
50
0
73
2
44
1
0
MTEXT
5
CE
100
AcDbEntity
8
Main Caption
6
ByLayer
62
256
370
-1
100
AcDbMText
10
1.5
20
2.625
30
0
40
0.15
41
0.108666666667
71
5
72
1
1
Q
7
wqy-unicode
210
0
220
0
230
1
50
0
73
2
44
1
0
MTEXT
5
CF
100
AcDbEntity
8
Main Caption
6
ByLayer
62
256
370
-1
100
AcDbMText
10
2.25
20
2.625
30
0
40
0.15
41
0.125166666667
71
5
72
1
1
W
7
wqy-unicode
210
0
220
0
230
1
50
0
73
2
44
1
0
MTEXT
5
D0
100
AcDbEntity
8
Main Caption
6
ByLayer
62
256
370
-1
100
AcDbMText
10
3
20
2.625
30
0
40
0.15
41
0.086
71
5
72
1
1
E
7
wqy-unicode
210
0
220
0
230
1
50
0
73
2
44
1
0
MTEXT
5
D1
100
AcDbEntity
8
Main Caption
6
ByLayer
62
256
370
-1
100
AcDbMText
10
3.75
20
2.625
30
0
40
0.15
41
0.100666666667
71
5
72
1
1
R
7
wqy-unicode
210
0
220
0
230
1
50
0
73
2
44
1
0
MTEXT
5
D2
100
AcDbEntity
8
Main Caption
6
ByLayer
62
256
370
-1
100
AcDbMText
10
4.5
20
2.625
30
0
40
0.15
41
0.1045
71
5
72
1
1
T
7
wqy-unicode
210
0
220
0
230
1
50
0
73
2
44
1
0
MTEXT
5
D3
100
AcDbEntity
8
Main Caption
6
ByLayer
62
256
370
-1
100
AcDbMText
10
5.25
20
2.625
30
0
40
0.15
41
0.118666666667
71
5
72
1
1
Y
7
wqy-unicode
210
0
220
0
230
1
50
0
73
2
44
1
0
MTEXT
5
D4
100
AcDbEntity
8
Main Caption
6
ByLayer
62
256
370
-1
100
AcDbMText
10
6
20
2.625
30
0
40
0.15
41
0.1
71
5
72
1
1
U
7
wqy-unicode
210
0
220
0
230
1
50
0
73
2
44
1
0
MTEXT
5
D5
100
AcDbEntity
8
Main Caption
6
ByLayer
62
256
370
-1
100
AcDbMText
10
6.75
20
2.625
30
0
40
0.15
41
0.0793333333333
71
5
72
1
1
I
7
wqy-unicode
210
0
220
0
230
1
50
0
73
2
44
1
0
MTEXT
5
D6
100
AcDbEntity
8
Main Caption
6
ByLayer
62
256
370
-1
100
AcDbMText
10
7.5
20
2.625
30
0
40
0.15
41
0.108666666667
71
5
72
1
1
O
7
wqy-unicode
210
0
220
0
230
1
50
0
73
2
44
1
0
MTEXT
5
D7
100
AcDbEntity
8
Main Caption
6
ByLayer
62
256
370
-1
100
AcDbMText
10
8.25
20
2.625
30
0
40
0.15
41
0.0938333333333
71
5
72
1
1
P
7
wqy-unicode
210
0
220
0
230
1
50
0
73
2
44
1
0
MTEXT
5
D8
100
AcDbEntity
8
Main Caption
6
ByLayer
62
256
370
-1
100
AcDbMText
10
1.6875
20
1.875
30
0
40
0.15
41
0.118833333333
71
5
72
1
1
A
7
wqy-unicode
210
0
220
0
230
1
50
0
73
2
44
1
0
MTEXT
5
D9
100
AcDbEntity
8
Main Caption
6
ByLayer
62
256
370
-1
100
AcDbMText
10
2.4375
20
1.875
30
0
40
0.15
41
0.0966666666667
71
5
72
1
1
S
7
wqy-unicode
210
0
220
0
230
1
50
0
73
2
44
1
0
MTEXT
5
DA
100
AcDbEntity
8
Main Caption
6
ByLayer
62
256
370
-1
100
AcDbMText
10
3.1875
20
1.875
30
0
40
0.15
41
0.103333333333
71
5
72
1
1
D
7
wqy-unicode
210
0
220
0
230
1
50
0
73
2
44
1
0
MTEXT
5
DB
100
AcDbEntity
8
Main Caption
6
ByLayer
62
256
370
-1
100
AcDbMText
10
3.9375
20
1.875
30
0
40
0.15
41
0.086
71
5
72
1
1
F
7
wqy-unicode
210
0
220
0
230
1
50
0
73
2
44
1
0
MTEXT
5
DC
100
AcDbEntity
8
Main Caption
6
ByLayer
62
256
370
-1
100
AcDbMText
10
4.6875
20
1.875
30
0
40
0.15
41
0.0998333333333
71
5
72
1
1
G
7
wqy-unicode
210
0
220
0
230
1
50
0
73
2
44
1
0
MTEXT
5
DD
100
AcDbEntity
8
Main Caption
6
ByLayer
62
256
370
-1
100
AcDbMText
10
5.4375
20
1.875
30
0
40
0.15
41
0.098
71
5
72
1
1
H
7
wqy-unicode
210
0
220
0
230
1
50
0
73
2
44
1
0
MTEXT
5
DE
100
AcDbEntity
8
Main Caption
6
ByLayer
62
256
370
-1
100
AcDbMText
10
6.1875
20
1.875
30
0
40
0.15
41
0.086
71
5
72
1
1
J
7
wqy-unicode
210
0
220
0
230
1
50
0
73
2
44
1
0
MTEXT
5
DF
100
AcDbEntity
8
Main Caption
6
ByLayer
62
256
370
-1
100
AcDbMText
10
6.9375
20
1.875
30
0
40
0.15
41
0.100833333333
71
5
72
1
1
K
7
wqy-unicode
210
0
220
0
230
1
50
0
73
2
44
1
0
MTEXT
5
E0
100
AcDbEntity
8
Main Caption
6
ByLayer
62
256
370
-1
100
AcDbMText
10
7.6875
20
1.875
30
0
40
0.15
41
0.084
71
5
72
1
1
L
7
wqy-unicode
210
0
220
0
230
1
50
0
73
2
44
1
0
MTEXT
5
E1
100
AcDbEntity
8
Main Caption
6
ByLayer
62
256
370
-1
100
AcDbMText
10
2.0625
20
1.125
30
0
40
0.15
41
0.1045
71
5
72
1
1
Z
7
wqy-unicode
210
0
220
0
230
1
50
0
73
2
44
1
0
MTEXT
5
E2
100
AcDbEntity
8
Main Caption
6
ByLayer
62
256
370
-1
100
AcDbMText
10
2.8125
20
1.125
30
0
40
0.15
41
0.1145
71
5
72
1
1
X
7
wqy-unicode
210
0
220
0
230
1
50
0
73
2
44
1
0
MTEXT
5
E3
100
AcDbEntity
8
Main Caption
6
ByLayer
62
256
370
-1
100
AcDbMText
10
3.5625
20
1.125
30
0
40
0.15
41
0.107333333333
71
5
72
1
1
C
7
wqy-unicode
210
0
220
0
230
1
50
0
73
2
44
1
0
MTEXT
5
E4
100
AcDbEntity
8
Main Caption
6
ByLayer
62
256
370
-1
100
AcDbMText
10
4.3125
20
1.125
30
0
40
0.15
41
0.118833333333
71
5
72
1
1
V
7
wqy-unicode
210
0
220
0
230
1
50
0
73
2
44
1
0
MTEXT
5
E5
100
AcDbEntity
8
Main Caption
6
ByLayer
62
256
370
-1
100
AcDbMText
10
5.0625
20
1.125
30
0
40
0.15
41
0.102333333333
71
5
72
1
1
B
7
wqy-unicode
210
0
220
0
230
1
50
0
73
2
44
1
0
MTEXT
5
E6
100
AcDbEntity
8
Main Caption
6
ByLayer
62
256
370
-1
100
AcDbMText
10
5.8125
20
1.125
30
0
40
0.15
41
0.0978333333333
71
5
72
1
1
N
7
wqy-unicode
210
0
220
0
230
1
50
0
73
2
44
1
0
MTEXT
5
E7
100
AcDbEntity
8
Main Caption
6
ByLayer
62
256
370
-1
100
AcDbMText
10
6.5625
20
1.125
30
0
40
0.15
41
0.1025
71
5
72
1
1
M
7
wqy-unicode
210
0
220
0
230
1
50
0
73
2
44
1
0
MTEXT
5
E8
100
AcDbEntity
8
Main Caption
6
ByLayer
62
256
370
-1
100
AcDbMText
10
0.1875
20
2.0625
30
0
40
0.1
41
0.352
71
4
72
1
1
Caps
7
wqy-unicode
210
0
220
0
230
1
50
0
73
2
44
1
0
MTEXT
5
E9
100
AcDbEntity
8
Main Caption
6
ByLayer
62
256
370
-1
100
AcDbMText
10
0.1875
20
1.3125
30
0
40
0.1
41
0.900666666667
71
4
72
1
1
Left Shift
7
wqy-unicode
210
0
220
0
230
1
50
0
73
2
44
1
0
MTEXT
5
EA
100
AcDbEntity
8
Main Caption
6
ByLayer
62
256
370
-1
100
AcDbMText
10
11.0625
20
2.0625
30
0
40
0.1
41
0.432666666667
71
6
72
1
1
Enter
7
wqy-unicode
210
0
220
0
230
1
50
0
73
2
44
1
0
MTEXT
5
EB
100
AcDbEntity
8
Main Caption
6
ByLayer
62
256
370
-1
100
AcDbMText
10
11.0625
20
1.3125
30
0
40
0.1
41
1.00577777778
71
6
72
1
1
Right Shift
7
wqy-unicode
210
0
220
0
230
1
50
0
73
2
44
1
0
MTEXT
5
EC
100
AcDbEntity
8
Main Caption
6
ByLayer
62
256
370
-1
100
AcDbMText
10
10.6875
20
2.4375
30
0
40
0.1
41
0.0548888888889
71
6
72
1
1
\
7
wqy-unicode
210
0
220
0
230
1
50
0
73
2
44
1
0
MTEXT
5
ED
100
AcDbEntity
8
Main Caption
6
ByLayer
62
256
370
-1
100
AcDbMText
10
9.75
20
2.4375
30
0
40
0.1
41
0.036
71
6
72
1
1
]
7
wqy-unicode
210
0
220
0
230
1
50
0
73
2
44
1
0
MTEXT
5
EE
100
AcDbEntity
8
Main Caption
6
ByLayer
62
256
370
-1
100
AcDbMText
10
9
20
2.4375
30
0
40
0.1
41
0.036
71
6
72
1
1
[
7
wqy-unicode
210
0
220
0
230
1
50
0
73
2
44
1
0
MTEXT
5
EF
100
AcDbEntity
8
Main Caption
6
ByLayer
62
256
370
-1
100
AcDbMText
10
8.4375
20
1.6875
30
0
40
0.1
41
0.023
71
6
72
1
1
;
7
wqy-unicode
210
0
220
0
230
1
50
0
73
2
44
1
0
MTEXT
5
F0
100
AcDbEntity
8
Main Caption
6
ByLayer
62
256
370
-1
100
AcDbMText
10
9.1875
20
1.6875
30
0
40
0.1
41
0.0161111111111
71
6
72
1
1
'
7
wqy-unicode
210
0
220
0
230
1
50
0
73
2
44
1
0
MTEXT
5
F1
100
AcDbEntity
8
Main Caption
6
ByLayer
62
256
370
-1
100
AcDbMText
10
7.3125
20
0.9375
30
0
40
0.1
41
0.0235555555556
71
6
72
1
1
,
7
wqy-unicode
210
0
220
0
230
1
50
0
73
2
44
1
0
MTEXT
5
F2
100
AcDbEntity
8
Main Caption
6
ByLayer
62
256
370
-1
100
AcDbMText
10
8.0625
20
0.9375
30
0
40
0.1
41
0.0206666666667
71
6
72
1
1
.
7
wqy-unicode
210
0
220
0
230
1
50
0
73
2
44
1
0
MTEXT
5
F3
100
AcDbEntity
8
Main Caption
6
ByLayer
62
256
370
-1
100
AcDbMText
10
8.8125
20
0.9375
30
0
40
0.1
41
0.0548888888889
71
6
72
1
1
/
7
wqy-unicode
210
0
220
0
230
1
50
0
73
2
44
1
0
MTEXT
5
F4
100
AcDbEntity
8
Secondary Caption
6
ByLayer
62
256
370
-1
100
AcDbMText
10
0.375
20
3.5625
30
0
40
0.1
41
0.0628888888889
71
6
72
1
1
~
7
wqy-unicode
210
0
220
0
230
1
50
0
73
2
44
1
0
MTEXT
5
F5
100
AcDbEntity
8
Secondary Caption
6
ByLayer
62
256
370
-1
100
AcDbMText
10
1.125
20
3.5625
30
0
40
0.1
41
0.0173333333333
71
6
72
1
1
!
7
wqy-unicode
210
0
220
0
230
1
50
0
73
2
44
1
0
MTEXT
5
F6
100
AcDbEntity
8
Secondary Caption
6
ByLayer
62
256
370
-1
100
AcDbMText
10
1.875
20
3.5625
30
0
40
0.1
41
0.0794444444444
71
6
72
1
1
@
7
wqy-unicode
210
0
220
0
230
1
50
0
73
2
44
1
0
MTEXT
5
F7
100
AcDbEntity
8
Secondary Caption
6
ByLayer
62
256
370
-1
100
AcDbMText
10
2.625
20
3.5625
30
0
40
0.1
41
0.0775555555556
71
6
72
1
1
#
7
wqy-unicode
210
0
220
0
230
1
50
0
73
2
44
1
0
MTEXT
5
F8
100
AcDbEntity
8
Secondary Caption
6
ByLayer
62
256
370
-1
100
AcDbMText
10
3.375
20
3.5625
30
0
40
0.1
41
0.0586666666667
71
6
72
1
1
$
7
wqy-unicode
210
0
220
0
230
1
50
0
73
2
44
1
0
MTEXT
5
F9
100
AcDbEntity
8
Secondary Caption
6
ByLayer
62
256
370
-1
100
AcDbMText
10
4.125
20
3.5625
30
0
40
0.1
41
0.0836666666667
71
6
72
1
1
%
7
wqy-unicode
210
0
220
0
230
1
50
0
73
2
44
1
0
MTEXT
5
FA
100
AcDbEntity
8
Secondary Caption
6
ByLayer
62
256
370
-1
100
AcDbMText
10
4.875
20
3.5625
30
0
40
0.1
41
0.0685555555556
71
6
72
1
1
^
7
wqy-unicode
210
0
220
0
230
1
50
0
73
2
44
1
0
MTEXT
5
FB
100
AcDbEntity
8
Secondary Caption
6
ByLayer
62
256
370
-1
100
AcDbMText
10
5.625
20
3.5625
30
0
40
0.1
41
0.0794444444444
71
5
72
1
1
&
7
wqy-unicode
210
0
220
0
230
1
50
0
73
2
44
1
0
MTEXT
5
FC
100
AcDbEntity
8
Secondary Caption
6
ByLayer
62
256
370
-1
100
AcDbMText
10
6.375
20
3.5625
30
0
40
0.1
41
0.0655555555556
71
5
72
1
1
*
7
wqy-unicode
210
0
220
0
230
1
50
0
73
2
44
1
0
MTEXT
5
FD
100
AcDbEntity
8
Secondary Caption
6
ByLayer
62
256
370
-1
100
AcDbMText
10
7.125
20
3.5625
30
0
40
0.1
41
0.0434444444444
71
5
72
1
1
(
7
wqy-unicode
210
0
220
0
230
1
50
0
73
2
44
1
0
MTEXT
5
FE
100
AcDbEntity
8
Secondary Caption
6
ByLayer
62
256
370
-1
100
AcDbMText
10
7.875
20
3.5625
30
0
40
0.1
41
0.0434444444444
71
5
72
1
1
)
7
wqy-unicode
210
0
220
0
230
1
50
0
73
2
44
1
0
MTEXT
5
FF
100
AcDbEntity
8
Secondary Caption
6
ByLayer
62
256
370
-1
100
AcDbMText
10
8.625
20
3.5625
30
0
40
0.1
41
0.0857777777778
71
5
72
1
1
_
7
wqy-unicode
210
0
220
0
230
1
50
0
73
2
44
1
0
MTEXT
5
100
100
AcDbEntity
8
Secondary Caption
6
ByLayer
62
256
370
-1
100
AcDbMText
10
9.375
20
3.5625
30
0
40
0.1
41
0.0628888888889
71
5
72
1
1
+
7
wqy-unicode
210
0
220
0
230
1
50
0
73
2
44
1
0
MTEXT
5
101
100
AcDbEntity
8
Secondary Caption
6
ByLayer
62
256
370
-1
100
AcDbMText
10
9
20
2.8125
30
0
40
0.1
41
0.0528888888889
71
5
72
1
1
{
7
wqy-unicode
210
0
220
0
230
1
50
0
73
2
44
1
0
MTEXT
5
102
100
AcDbEntity
8
Secondary Caption
6
ByLayer
62
256
370
-1
100
AcDbMText
10
9.75
20
2.8125
30
0
40
0.1
41
0.0528888888889
71
5
72
1
1
}
7
wqy-unicode
210
0
220
0
230
1
50
0
73
2
44
1
0
MTEXT
5
103
100
AcDbEntity
8
Secondary Caption
6
ByLayer
62
256
370
-1
100
AcDbMText
10
10.6875
20
2.8125
30
0
40
0.1
41
0.0101111111111
71
5
72
1
1
|
7
wqy-unicode
210
0
220
0
230
1
50
0
73
2
44
1
0
MTEXT
5
104
100
AcDbEntity
8
Secondary Caption
6
ByLayer
62
256
370
-1
100
AcDbMText
10
8.4375
20
2.0625
30
0
40
0.1
41
0.0173333333333
71
5
72
1
1
:
7
wqy-unicode
210
0
220
0
230
1
50
0
73
2
44
1
0
MTEXT
5
105
100
AcDbEntity
8
Secondary Caption
6
ByLayer
62
256
370
-1
100
AcDbMText
10
9.1875
20
2.0625
30
0
40
0.1
41
0.0448888888889
71
5
72
1
1
"
7
wqy-unicode
210
0
220
0
230
1
50
0
73
2
44
1
0
MTEXT
5
106
100
AcDbEntity
8
Secondary Caption
6
ByLayer
62
256
370
-1
100
AcDbMText
10
7.3125
20
1.3125
30
0
40
0.1
41
0.0628888888889
71
5
72
1
1
<
7
wqy-unicode
210
0
220
0
230
1
50
0
73
2
44
1
0
MTEXT
5
107
100
AcDbEntity
8
Secondary Caption
6
ByLayer
62
256
370
-1
100
AcDbMText
10
8.0625
20
1.3125
30
0
40
0.1
41
0.0628888888889
71
5
72
1
1
>
7
wqy-unicode
210
0
220
0
230
1
50
0
73
2
44
1
0
MTEXT
5
108
100
AcDbEntity
8
Secondary Caption
6
ByLayer
62
256
370
-1
100
AcDbMText
10
8.8125
20
1.3125
30
0
40
0.1
41
0.0606666666667
71
5
72
1
1
?
7
wqy-unicode
210
0
220
0
230
1
50
0
73
2
44
1
0
MTEXT
5
109
100
AcDbEntity
8
Function Caption
6
ByLayer
62
256
370
-1
100
AcDbMText
10
1.125
20
3.375
30
0
40
0.075
41
0.09525
71
5
72
1
1
F1
7
wqy-unicode
210
0
220
0
230
1
50
0
73
2
44
1
0
MTEXT
5
10A
100
AcDbEntity
8
Function Caption
6
ByLayer
62
256
370
-1
100
AcDbMText
10
1.875
20
3.375
30
0
40
0.075
41
0.114583333333
71
5
72
1
1
F2
7
wqy-unicode
210
0
220
0
230
1
50
0
73
2
44
1
0
MTEXT
5
10B
100
AcDbEntity
8
Function Caption
6
ByLayer
62
256
370
-1
100
AcDbMText
10
2.625
20
3.375
30
0
40
0.075
41
0.115166666667
71
5
72
1
1
F3
7
wqy-unicode
210
0
220
0
230
1
50
0
73
2
44
1
0
MTEXT
5
10C
100
AcDbEntity
8
Function Caption
6
ByLayer
62
256
370
-1
100
AcDbMText
10
3.375
20
3.375
30
0
40
0.075
41
0.122416666667
71
5
72
1
1
F4
7
wqy-unicode
210
0
220
0
230
1
50
0
73
2
44
1
0
MTEXT
5
10D
100
AcDbEntity
8
Function Caption
6
ByLayer
62
256
370
-1
100
AcDbMText
10
4.125
20
3.375
30
0
40
0.075
41
0.113083333333
71
5
72
1
1
F5
7
wqy-unicode
210
0
220
0
230
1
50
0
73
2
44
1
0
MTEXT
5
10E
100
AcDbEntity
8
Function Caption
6
ByLayer
62
256
370
-1
100
AcDbMText
10
4.875
20
3.375
30
0
40
0.075
41
0.115083333333
71
5
72
1
1
F6
7
wqy-unicode
210
0
220
0
230
1
50
0
73
2
44
1
0
MTEXT
5
10F
100
AcDbEntity
8
Function Caption
6
ByLayer
62
256
370
-1
100
AcDbMText
10
5.625
20
3.375
30
0
40
0.075
41
0.116
71
5
72
1
1
F7
7
wqy-unicode
210
0
220
0
230
1
50
0
73
2
44
1
0
MTEXT
5
110
100
AcDbEntity
8
Function Caption
6
ByLayer
62
256
370
-1
100
AcDbMText
10
6.375
20
3.375
30
0
40
0.075
41
0.114833333333
71
5
72
1
1
F8
7
wqy-unicode
210
0
220
0
230
1
50
0
73
2
44
1
0
MTEXT
5
111
100
AcDbEntity
8
Function Caption
6
ByLayer
62
256
370
-1
100
AcDbMText
10
7.125
20
3.375
30
0
40
0.075
41
0.115083333333
71
5
72
1
1
F9
7
wqy-unicode
210
0
220
0
230
1
50
0
73
2
44
1
0
MTEXT
5
112
100
AcDbEntity
8
Function Caption
6
ByLayer
62
256
370
-1
100
AcDbMText
10
7.875
20
3.375
30
0
40
0.075
41
0.168
71
5
72
1
1
F10
7
wqy-unicode
210
0
220
0
230
1
50
0
73
2
44
1
0
MTEXT
5
113
100
AcDbEntity
8
Function Caption
6
ByLayer
62
256
370
-1
100
AcDbMText
10
8.625
20
3.375
30
0
40
0.075
41
0.1475
71
5
72
1
1
F11
7
wqy-unicode
210
0
220
0
230
1
50
0
73
2
44
1
0
MTEXT
5
114
100
AcDbEntity
8
Function Caption
6
ByLayer
62
256
370
-1
100
AcDbMText
10
9.375
20
3.375
30
0
40
0.075
41
0.166833333333
71
5
72
1
1
F12
7
wqy-unicode
210
0
220
0
230
1
50
0
73
2
44
1
0
MTEXT
5
115
100
AcDbEntity
8
Main Caption
6
ByLayer
62
256
370
-1
100
AcDbMText
10
10.6875
20
0.5625
30
0
40
0.1
41
0.240666666667
71
4
72
1
1
Esc
7
wqy-unicode
210
0
220
0
230
1
50
0
73
2
44
1
0
MTEXT
5
116
100
AcDbEntity
8
Main Caption
6
ByLayer
62
256
370
-1
100
AcDbMText
10
0.1875
20
2.8125
30
0
40
0.1
41
0.260666666667
71
4
72
1
1
Tab
7
wqy-unicode
210
0
220
0
230
1
50
0
73
2
44
1
0
MTEXT
5
117
100
AcDbEntity
8
Function Caption
6
ByLayer
62
256
370
-1
100
AcDbMText
10
11.0625
20
3.375
30
0
40
0.075
41
0.41925
71
6
72
1
1
Alt+F4
7
wqy-unicode
210
0
220
0
230
1
50
0
73
2
44
1
0
MTEXT
5
118
100
AcDbEntity
8
Main Caption
6
ByLayer
62
256
370
-1
100
AcDbMText
10
11.0625
20
3.5625
30
0
40
0.1
41
0.827222222222
71
6
72
1
1
Backspace
7
wqy-unicode
210
0
220
0
230
1
50
0
73
2
44
1
0
MTEXT
5
119
100
AcDbEntity
8
Main Caption
6
ByLayer
62
256
370
-1
100
AcDbMText
10
12
20
3.5625
30
0
40
0.1
41
0.517666666667
71
5
72
1
1
Insert
7
wqy-unicode
210
0
220
0
230
1
50
0
73
2
44
1
0
MTEXT
5
11A
100
AcDbEntity
8
Main Caption
6
ByLayer
62
256
370
-1
100
AcDbMText
10
12
20
2.8125
30
0
40
0.1
41
0.552555555556
71
5
72
1
1
Delete
7
wqy-unicode
210
0
220
0
230
1
50
0
73
2
44
1
0
MTEXT
5
11B
100
AcDbEntity
8
Main Caption
6
ByLayer
62
256
370
-1
100
AcDbMText
10
12.75
20
3.5625
30
0
40
0.1
41
0.370111111111
71
5
72
1
1
Home
7
wqy-unicode
210
0
220
0
230
1
50
0
73
2
44
1
0
MTEXT
5
11C
100
AcDbEntity
8
Main Caption
6
ByLayer
62
256
370
-1
100
AcDbMText
10
12.75
20
2.8125
30
0
40
0.1
41
0.249555555556
71
5
72
1
1
End
7
wqy-unicode
210
0
220
0
230
1
50
0
73
2
44
1
0
MTEXT
5
11D
100
AcDbEntity
8
Main Caption
6
ByLayer
62
256
370
-1
100
AcDbMText
10
13.5
20
3.5625
30
0
40
0.1
41
0.437666666667
71
5
72
1
1
Pg Up
7
wqy-unicode
210
0
220
0
230
1
50
0
73
2
44
1
0
MTEXT
5
11E
100
AcDbEntity
8
Main Caption
6
ByLayer
62
256
370
-1
100
AcDbMText
10
13.5
20
2.8125
30
0
40
0.1
41
0.438111111111
71
5
72
1
1
Pg Dn
7
wqy-unicode
210
0
220
0
230
1
50
0
73
2
44
1
0
MTEXT
5
11F
100
AcDbEntity
8
Function Caption
6
ByLayer
62
256
370
-1
100
AcDbMText
10
12
20
2.4375
30
0
40
0.1
41
0.432111111111
71
5
72
1
1
Print
7
wqy-unicode
210
0
220
0
230
1
50
0
73
2
44
1
0
MTEXT
5
120
100
AcDbEntity
8
Function Caption
6
ByLayer
62
256
370
-1
100
AcDbMText
10
12.75
20
2.4375
30
0
40
0.1
41
0.533444444444
71
5
72
1
1
Scroll\PLock
7
wqy-unicode
210
0
220
0
230
1
50
0
73
2
44
1
0
MTEXT
5
121
100
AcDbEntity
8
Function Caption
6
ByLayer
62
256
370
-1
100
AcDbMText
10
13.5
20
2.4375
30
0
40
0.1
41
0.440111111111
71
5
72
1
1
Pause
7
wqy-unicode
210
0
220
0
230
1
50
0
73
2
44
1
0
MTEXT
5
122
100
AcDbEntity
8
Main Caption
6
ByLayer
62
256
370
-1
100
AcDbMText
10
12.75
20
1.3125
30
0
40
0.1
41
0.163666666667
71
5
72
1
1
Up
7
wqy-unicode
210
0
220
0
230
1
50
0
73
2
44
1
0
MTEXT
5
123
100
AcDbEntity
8
Main Caption
6
ByLayer
62
256
370
-1
100
AcDbMText
10
12.75
20
0.5625
30
0
40
0.1
41
0.382888888889
71
5
72
1
1
Down
7
wqy-unicode
210
0
220
0
230
1
50
0
73
2
44
1
0
MTEXT
5
124
100
AcDbEntity
8
Main Caption
6
ByLayer
62
256
370
-1
100
AcDbMText
10
12
20
0.5625
30
0
40
0.1
41
0.347222222222
71
5
72
1
1
Left
7
wqy-unicode
210
0
220
0
230
1
50
0
73
2
44
1
0
MTEXT
5
125
100
AcDbEntity
8
Main Caption
6
ByLayer
62
256
370
-1
100
AcDbMText
10
13.5
20
0.5625
30
0
40
0.1
41
0.452333333333
71
5
72
1
1
Right
7
wqy-unicode
210
0
220
0
230
1
50
0
73
2
44
1
0
MTEXT
5
126
100
AcDbEntity
8
Key Sizes
6
ByLayer
62
256
370
-1
100
AcDbMText
10
0.9375
20
2.4375
30
0
40
0.1
41
0.183777777778
71
6
72
1
1
1.5
7
wqy-unicode
210
0
220
0
230
1
50
0
73
2
44
1
0
MTEXT
5
127
100
AcDbEntity
8
Key Sizes
6
ByLayer
62
256
370
-1
100
AcDbMText
10
0.75
20
0.1875
30
0
40
0.1
41
0.279222222222
71
6
72
1
1
1.25
7
wqy-unicode
210
0
220
0
230
1
50
0
73
2
44
1
0
MTEXT
5
128
100
AcDbEntity
8
Key Sizes
6
ByLayer
62
256
370
-1
100
AcDbMText
10
1.6875
20
0.1875
30
0
40
0.1
41
0.279222222222
71
6
72
1
1
1.25
7
wqy-unicode
210
0
220
0
230
1
50
0
73
2
44
1
0
MTEXT
5
129
100
AcDbEntity
8
Key Sizes
6
ByLayer
62
256
370
-1
100
AcDbMText
10
2.625
20
0.1875
30
0
40
0.1
41
0.279222222222
71
6
72
1
1
1.25
7
wqy-unicode
210
0
220
0
230
1
50
0
73
2
44
1
0
MTEXT
5
12A
100
AcDbEntity
8
Key Sizes
6
ByLayer
62
256
370
-1
100
AcDbMText
10
8.25
20
0.1875
30
0
40
0.1
41
0.279222222222
71
6
72
1
1
1.25
7
wqy-unicode
210
0
220
0
230
1
50
0
73
2
44
1
0
MTEXT
5
12B
100
AcDbEntity
8
Key Sizes
6
ByLayer
62
256
370
-1
100
AcDbMText
10
9.1875
20
0.1875
30
0
40
0.1
41
0.279222222222
71
6
72
1
1
1.25
7
wqy-unicode
210
0
220
0
230
1
50
0
73
2
44
1
0
MTEXT
5
12C
100
AcDbEntity
8
Key Sizes
6
ByLayer
62
256
370
-1
100
AcDbMText
10
10.125
20
0.1875
30
0
40
0.1
41
0.279222222222
71
6
72
1
1
1.25
7
wqy-unicode
210
0
220
0
230
1
50
0
73
2
44
1
0
MTEXT
5
12D
100
AcDbEntity
8
Key Sizes
6
ByLayer
62
256
370
-1
100
AcDbMText
10
11.0625
20
2.4375
30
0
40
0.1
41
0.183777777778
71
6
72
1
1
1.5
7
wqy-unicode
210
0
220
0
230
1
50
0
73
2
44
1
0
MTEXT
5
12E
100
AcDbEntity
8
Key Sizes
6
ByLayer
62
256
370
-1
100
AcDbMText
10
1.125
20
1.6875
30
0
40
0.1
41
0.281111111111
71
6
72
1
1
1.75
7
wqy-unicode
210
0
220
0
230
1
50
0
73
2
44
1
0
MTEXT
5
12F
100
AcDbEntity
8
Key Sizes
6
ByLayer
62
256
370
-1
100
AcDbMText
10
1.5
20
0.9375
30
0
40
0.1
41
0.305
71
6
72
1
1
2.25
7
wqy-unicode
210
0
220
0
230
1
50
0
73
2
44
1
0
MTEXT
5
130
100
AcDbEntity
8
Key Sizes
6
ByLayer
62
256
370
-1
100
AcDbMText
10
11.0625
20
1.6875
30
0
40
0.1
41
0.305
71
6
72
1
1
2.25
7
wqy-unicode
210
0
220
0
230
1
50
0
73
2
44
1
0
MTEXT
5
131
100
AcDbEntity
8
Key Sizes
6
ByLayer
62
256
370
-1
100
AcDbMText
10
11.0625
20
0.9375
30
0
40
0.1
41
0.306888888889
71
6
72
1
1
2.75
7
wqy-unicode
210
0
220
0
230
1
50
0
73
2
44
1
0
MTEXT
5
132
100
AcDbEntity
8
Key Sizes
6
ByLayer
62
256
370
-1
100
AcDbMText
10
11.0625
20
3.1875
30
0
40
0.1
41
0.209555555556
71
6
72
1
1
2.5
7
wqy-unicode
210
0
220
0
230
1
50
0
73
2
44
1
0
MTEXT
5
133
100
AcDbEntity
8
Key Sizes
6
ByLayer
62
256
370
-1
100
AcDbMText
10
7.3125
20
0.1875
30
0
40
0.1
41
0.305666666667
71
6
72
1
1
6.25
7
wqy-unicode
210
0
220
0
230
1
50
0
73
2
44
1
0
ENDSEC
0
SECTION
2
OBJECTS
0
DICTIONARY
5
C
330
0
100
AcDbDictionary
281
1
3
ACAD_GROUP
350
D
0
DICTIONARY
5
D
330
C
100
AcDbDictionary
281
1
0
ENDSEC
0
EOF
